<svg xmlns="http://www.w3.org/2000/svg" width="390" height="720" viewBox="0 0 390 720" fill="none">
  <rect width="390" height="720" fill="#EEF2FF"/>
  <rect x="24" y="48" width="342" height="580" rx="16" fill="white" stroke="#E4E4E7"/>
  <rect x="40" y="80" width="120" height="20" rx="10" fill="#E0E7FF"/>
  <rect x="40" y="112" width="200" height="28" rx="6" fill="#18181B" opacity="0.9"/>
  <rect x="40" y="152" width="260" height="14" rx="4" fill="#A1A1AA"/>
  <rect x="40" y="196" width="220" height="44" rx="12" fill="#FAFAFA" stroke="#D4D4D8"/>
  <rect x="272" y="196" width="78" height="44" rx="12" fill="#4F46E5"/>
  <rect x="40" y="260" width="310" height="12" rx="4" fill="#D4D4D8"/>
  <rect x="40" y="292" width="56" height="28" rx="14" fill="#4F46E5"/>
  <rect x="104" y="292" width="72" height="28" rx="14" fill="#F4F4F5"/>
  <rect x="184" y="292" width="72" height="28" rx="14" fill="#F4F4F5"/>
  <rect x="272" y="292" width="78" height="28" rx="14" fill="#FFF1F2" stroke="#FECDD3"/>
  <circle cx="56" cy="368" r="10" fill="#4F46E5"/>
  <rect x="76" y="362" width="180" height="12" rx="4" fill="#3F3F46"/>
  <rect x="290" y="358" width="40" height="20" rx="6" fill="#FFF1F2"/>
  <circle cx="56" cy="416" r="10" fill="white" stroke="#D4D4D8" stroke-width="2"/>
  <rect x="76" y="410" width="140" height="12" rx="4" fill="#A1A1AA"/>
  <rect x="290" y="406" width="40" height="20" rx="6" fill="#FFF1F2"/>
  <rect x="40" y="456" width="310" height="1" fill="#F4F4F5"/>
  <rect x="40" y="472" width="60" height="10" rx="4" fill="#A1A1AA"/>
  <rect x="260" y="472" width="90" height="10" rx="4" fill="#A1A1AA"/>
  <text x="195" y="700" text-anchor="middle" fill="#71717A" font-family="system-ui,sans-serif" font-size="11">Todo App · 375px preview</text>
</svg>
